<?xml version="1.0" standalone="no"?>
<!DOCTYPE svg PUBLIC "-//W3C//DTD SVG 20010904//EN"
 "http://www.w3.org/TR/2001/REC-SVG-20010904/DTD/svg10.dtd">
<svg version="1.0" xmlns="http://www.w3.org/2000/svg"
 width="1024.000000pt" height="1024.000000pt" viewBox="0 0 1024.000000 1024.000000"
 preserveAspectRatio="xMidYMid meet">
<metadata>
Created by potrace 1.11, written by Peter Selinger 2001-2013
</metadata>
<g transform="translate(0.000000,1024.000000) scale(0.100000,-0.100000)"
fill="#000000" stroke="none">
<path d="M5022 8914 c-159 -79 -359 -458 -428 -809 -2 -11 -6 -31 -9 -45 -15
-76 -18 -95 -30 -190 -14 -117 -22 -201 -30 -340 -5 -73 -15 -757 -15 -956 l0
-100 -122 -70 c-68 -38 -132 -74 -143 -80 -55 -30 -398 -222 -455 -254 -36
-21 -85 -49 -110 -62 -25 -14 -125 -71 -224 -127 -98 -56 -180 -100 -181 -99
-2 2 -5 37 -8 79 -5 82 -12 102 -49 135 -38 35 -85 44 -253 45 -184 2 -259
-22 -288 -91 -5 -14 -11 -131 -13 -264 -2 -132 -5 -245 -8 -252 -4 -10 -61
-45 -171 -105 -16 -8 -185 -104 -375 -211 -190 -107 -372 -210 -405 -228 -33
-18 -77 -44 -98 -57 -35 -22 -77 -47 -132 -77 -11 -6 -50 -31 -87 -54 l-67
-43 4 -132 c2 -73 4 -137 4 -144 1 -8 16 -8 59 2 31 8 75 16 97 19 47 6 69 10
195 36 52 11 106 21 120 24 26 4 164 34 410 86 173 37 149 32 335 71 82 17
161 33 175 36 30 5 345 71 515 108 66 14 129 27 140 29 11 2 94 21 185 41 204
45 182 40 265 60 146 35 236 46 415 52 230 7 311 6 321 -4 4 -4 10 -55 14
-113 3 -58 8 -118 10 -135 2 -16 7 -73 10 -125 3 -52 8 -111 10 -130 2 -19 6
-75 10 -125 3 -49 7 -110 10 -135 2 -25 7 -83 10 -130 4 -47 8 -101 10 -120 2
-19 6 -78 10 -130 3 -52 8 -106 10 -120 2 -14 6 -63 10 -110 7 -100 13 -179
20 -235 2 -22 7 -76 10 -120 3 -44 8 -93 10 -110 2 -16 6 -66 10 -110 3 -44 8
-94 10 -111 4 -30 1 -33 -68 -69 -39 -21 -94 -50 -122 -65 -27 -15 -99 -53
-160 -85 -60 -32 -137 -72 -170 -90 -122 -65 -272 -144 -345 -182 -41 -21 -77
-40 -80 -43 -3 -3 -43 -25 -90 -49 -238 -122 -257 -135 -251 -173 0 -4 1 -85
1 -180 l1 -174 147 37 c226 57 922 220 1002 235 14 3 45 10 70 15 78 18 84 19
130 29 25 5 48 6 51 2 3 -4 32 -110 63 -236 75 -298 163 -561 194 -580 21 -13
123 298 208 632 l49 194 35 -6 c56 -9 74 -13 224 -50 174 -43 313 -76 346 -82
14 -3 52 -12 85 -21 33 -8 67 -16 75 -18 8 -2 38 -9 65 -15 28 -6 58 -13 68
-15 10 -2 26 -6 35 -9 9 -3 28 -7 42 -10 14 -2 97 -22 185 -44 88 -22 179 -43
203 -47 l42 -7 1 36 c1 20 1 45 1 56 0 11 0 83 -1 159 l-1 139 -47 30 c-76 48
-204 115 -744 390 -288 147 -336 172 -446 234 -48 27 -52 31 -48 61 2 18 6 77
10 131 4 55 8 107 10 115 1 9 6 66 10 126 3 61 8 121 10 135 2 14 6 66 10 115
3 50 7 108 10 130 16 152 17 166 30 340 12 178 32 408 40 465 2 19 7 85 10
145 8 160 14 243 21 308 l6 59 247 -5 c241 -6 282 -10 501 -55 25 -5 149 -31
275 -57 127 -25 281 -57 343 -71 63 -13 128 -26 145 -29 18 -3 109 -22 202
-41 94 -20 181 -38 195 -40 14 -3 102 -21 195 -40 94 -19 238 -49 320 -65 83
-17 157 -32 165 -34 54 -11 170 -35 195 -39 17 -3 39 -8 50 -10 11 -3 90 -19
175 -36 85 -18 166 -34 180 -37 14 -3 39 -6 55 -7 l30 -1 2 135 c1 92 -2 139
-10 148 -13 17 -57 45 -137 89 -30 17 -82 46 -115 65 -33 20 -195 111 -360
203 -165 92 -350 196 -412 231 -61 36 -143 81 -181 102 -129 69 -115 31 -116
318 -1 218 -3 253 -19 281 -34 62 -89 76 -314 75 -128 0 -159 -3 -190 -19 -65
-32 -81 -67 -82 -180 l-1 -62 -62 40 c-35 22 -115 73 -178 114 -63 41 -137 88
-165 105 -27 17 -83 52 -123 78 -40 26 -170 110 -290 186 -119 77 -255 164
-302 194 -47 31 -100 65 -117 76 -24 16 -33 29 -34 51 -1 17 -3 46 -4 65 -4
52 -14 360 -21 645 -3 138 -7 270 -9 295 -4 71 -17 223 -21 244 -2 10 -6 44
-10 75 -3 31 -8 58 -9 61 -2 3 -6 25 -10 50 -9 58 -61 259 -87 335 -150 440
-334 625 -526 529z"/>
</g>
</svg>
