<svg display="none" xmlns="http://www.w3.org/2000/svg">
	<symbol id="facebook" viewBox="0 0 96.124 96.123">
		<g>
	<path d="M72.089,0.02L59.624,0C45.62,0,36.57,9.285,36.57,23.656v10.907H24.037c-1.083,0-1.96,0.878-1.96,1.961v15.803
		c0,1.083,0.878,1.96,1.96,1.96h12.533v39.876c0,1.083,0.877,1.96,1.96,1.96h16.352c1.083,0,1.96-0.878,1.96-1.96V54.287h14.654
		c1.083,0,1.96-0.877,1.96-1.96l0.006-15.803c0-0.52-0.207-1.018-0.574-1.386c-0.367-0.368-0.867-0.575-1.387-0.575H56.842v-9.246
		c0-4.444,1.059-6.7,6.848-6.7l8.397-0.003c1.082,0,1.959-0.878,1.959-1.96V1.98C74.046,0.899,73.17,0.022,72.089,0.02z"/>
		</g>
	</symbol>
	<symbol id="twitter" viewBox="0 0 512 512">
		<g>
	<g>
		<path d="M512,97.248c-19.04,8.352-39.328,13.888-60.48,16.576c21.76-12.992,38.368-33.408,46.176-58.016
			c-20.288,12.096-42.688,20.64-66.56,25.408C411.872,60.704,384.416,48,354.464,48c-58.112,0-104.896,47.168-104.896,104.992
			c0,8.32,0.704,16.32,2.432,23.936c-87.264-4.256-164.48-46.08-216.352-109.792c-9.056,15.712-14.368,33.696-14.368,53.056
			c0,36.352,18.72,68.576,46.624,87.232c-16.864-0.32-33.408-5.216-47.424-12.928c0,0.32,0,0.736,0,1.152
			c0,51.008,36.384,93.376,84.096,103.136c-8.544,2.336-17.856,3.456-27.52,3.456c-6.72,0-13.504-0.384-19.872-1.792
			c13.6,41.568,52.192,72.128,98.08,73.12c-35.712,27.936-81.056,44.768-130.144,44.768c-8.608,0-16.864-0.384-25.12-1.44
			C46.496,446.88,101.6,464,161.024,464c193.152,0,298.752-160,298.752-298.688c0-4.64-0.16-9.12-0.384-13.568
			C480.224,136.96,497.728,118.496,512,97.248z"/>
	</g>
</g>
	</symbol>
	<symbol id="linked" viewBox="0 0 512 512">
		<g transform="translate(1)">
	<g>
		<g>
			<path d="M68.12,4.267c-18.773,0-35.84,6.827-48.64,19.627C5.827,37.547-1,54.613-1,72.533c0,18.773,7.68,35.84,20.48,48.64
				c12.8,12.8,30.72,20.48,47.787,19.627c0,0,0.853,0,1.707,0c17.067,0,33.28-6.827,46.08-19.627
				c12.8-12.8,20.48-29.867,20.48-48.64c0.853-17.92-6.827-34.987-19.627-47.787C103.107,11.093,86.04,4.267,68.12,4.267z
				 M103.107,109.227c-9.387,9.387-22.187,15.36-35.84,14.507c-12.8,0-26.453-5.12-35.84-14.507
				c-10.24-9.387-15.36-23.04-15.36-36.693s5.12-26.453,15.36-36.693c9.387-9.387,22.187-14.507,36.693-14.507
				c12.8,0,25.6,5.12,34.987,14.507c10.24,10.24,15.36,23.04,15.36,36.693S113.347,99.84,103.107,109.227z"/>
			<path d="M101.4,157.867H32.28c-13.653,0-24.747,11.093-24.747,25.6v298.667c0,13.653,11.947,25.6,25.6,25.6H101.4
				c13.653,0,25.6-11.947,25.6-24.747v-299.52C127,169.813,115.053,157.867,101.4,157.867z M109.933,482.987
				c0,4.267-4.267,7.68-8.533,7.68H33.133c-4.267,0-8.533-4.267-8.533-8.533V183.467c0-4.267,3.413-8.533,7.68-8.533h69.12
				c4.267,0,8.533,4.267,8.533,8.533V482.987z"/>
			<path d="M391.533,149.333h-17.92c-33.28,0-64.853,14.507-85.333,37.547v-11.947c0-8.533-8.533-17.067-17.067-17.067H185.88
				c-7.68,0-17.067,6.827-17.067,16.213v318.293c0,9.387,9.387,15.36,17.067,15.36h93.867c7.68,0,17.067-5.973,17.067-15.36v-184.32
				c0-28.16,20.48-50.347,46.933-50.347c13.653,0,26.453,5.12,35.84,14.507c8.533,7.68,11.947,19.627,11.947,34.987v183.467
				c0,8.533,8.533,17.067,17.067,17.067h85.333c8.533,0,17.067-8.533,17.067-17.067v-220.16
				C511,202.24,458.947,149.333,391.533,149.333z M493.933,489.813l-0.853,0.853h-83.627L408.6,307.2
				c0-20.48-5.12-35.84-16.213-46.933c-12.8-12.8-29.867-19.627-47.787-19.627c-35.84,0.853-64,29.867-64,67.413v182.613h-93.867
				V174.933h84.48l0.853,0.853v53.76l23.04-23.04l0.853-0.853c17.067-23.893,46.933-39.253,78.507-39.253h17.92
				c57.173,0,101.547,46.08,101.547,104.107V489.813z"/>
		</g>
	</g>
</g>
	</symbol>
	<symbol id="youtube" viewBox="0 -10 550 500">
		<path d="m334.808594 170.992188-113.113282-61.890626c-6.503906-3.558593-14.191406-3.425781-20.566406.351563-6.378906 3.78125-10.183594 10.460937-10.183594 17.875v122.71875c0 7.378906 3.78125 14.046875 10.117188 17.832031 3.308594 1.976563 6.976562 2.96875 10.652344 2.96875 3.367187 0 6.742187-.832031 9.847656-2.503906l113.117188-60.824219c6.714843-3.613281 10.90625-10.59375 10.9375-18.222656.027343-7.628906-4.113282-14.640625-10.808594-18.304687zm-113.859375 63.617187v-91.71875l84.539062 46.257813zm0 0"/><path d="m508.234375 91.527344-.023437-.234375c-.433594-4.121094-4.75-40.777344-22.570313-59.421875-20.597656-21.929688-43.949219-24.59375-55.179687-25.871094-.929688-.105469-1.78125-.203125-2.542969-.304688l-.894531-.09375c-67.6875-4.921874-169.910157-5.5937495-170.933594-5.59765575l-.089844-.00390625-.089844.00390625c-1.023437.00390625-103.246094.67578175-171.542968 5.59765575l-.902344.09375c-.726563.097657-1.527344.1875-2.398438.289063-11.101562 1.28125-34.203125 3.949219-54.859375 26.671875-16.972656 18.445312-21.878906 54.316406-22.382812 58.347656l-.058594.523438c-.152344 1.714844-3.765625 42.539062-3.765625 83.523437v38.3125c0 40.984375 3.613281 81.808594 3.765625 83.527344l.027344.257813c.433593 4.054687 4.746093 40.039062 22.484375 58.691406 19.367187 21.195312 43.855468 24 57.027344 25.507812 2.082031.238282 3.875.441406 5.097656.65625l1.183594.164063c39.082031 3.71875 161.617187 5.550781 166.8125 5.625l.15625.003906.15625-.003906c1.023437-.003907 103.242187-.675781 170.929687-5.597657l.894531-.09375c.855469-.113281 1.816406-.214843 2.871094-.324218 11.039062-1.171875 34.015625-3.605469 54.386719-26.019532 16.972656-18.449218 21.882812-54.320312 22.382812-58.347656l.058594-.523437c.152344-1.71875 3.769531-42.539063 3.769531-83.523438v-38.3125c-.003906-40.984375-3.617187-81.804687-3.769531-83.523437zm-26.238281 121.835937c0 37.933594-3.3125 77-3.625 80.585938-1.273438 9.878906-6.449219 32.574219-14.71875 41.5625-12.75 14.027343-25.847656 15.417969-35.410156 16.429687-1.15625.121094-2.226563.238282-3.195313.359375-65.46875 4.734375-163.832031 5.460938-168.363281 5.488281-5.082032-.074218-125.824219-1.921874-163.714844-5.441406-1.941406-.316406-4.039062-.558594-6.25-.808594-11.214844-1.285156-26.566406-3.042968-38.371094-16.027343l-.277344-.296875c-8.125-8.464844-13.152343-29.6875-14.429687-41.148438-.238281-2.710937-3.636719-42.238281-3.636719-80.703125v-38.3125c0-37.890625 3.304688-76.914062 3.625-80.574219 1.519532-11.636718 6.792969-32.957031 14.71875-41.574218 13.140625-14.453125 26.996094-16.054688 36.160156-17.113282.875-.101562 1.691407-.195312 2.445313-.292968 66.421875-4.757813 165.492187-5.464844 169.046875-5.492188 3.554688.023438 102.589844.734375 168.421875 5.492188.808594.101562 1.691406.203125 2.640625.3125 9.425781 1.074218 23.671875 2.699218 36.746094 16.644531l.121094.128906c8.125 8.464844 13.152343 30.058594 14.429687 41.75.226563 2.558594 3.636719 42.171875 3.636719 80.71875zm0 0"/>
	</symbol>
	<symbol id="pinterest" viewBox="0 0 438.529 438.529">
		<g>
	<path d="M409.141,109.203c-19.608-33.592-46.205-60.189-79.798-79.796C295.751,9.801,259.065,0,219.281,0
		C179.5,0,142.812,9.801,109.22,29.407c-33.597,19.604-60.194,46.201-79.8,79.796C9.809,142.8,0.008,179.485,0.008,219.267
		c0,44.35,12.085,84.611,36.258,120.767c24.172,36.172,55.863,62.912,95.073,80.232c-0.762-20.365,0.476-37.209,3.709-50.532
		l28.267-119.348c-4.76-9.329-7.139-20.93-7.139-34.831c0-16.175,4.089-29.689,12.275-40.541
		c8.186-10.85,18.177-16.274,29.979-16.274c9.514,0,16.841,3.14,21.982,9.42c5.142,6.283,7.705,14.181,7.705,23.7
		c0,5.896-1.099,13.084-3.289,21.554c-2.188,8.471-5.041,18.273-8.562,29.409c-3.521,11.132-6.045,20.036-7.566,26.692
		c-2.663,11.608-0.476,21.553,6.567,29.838c7.042,8.278,16.372,12.423,27.983,12.423c20.365,0,37.065-11.324,50.107-33.972
		c13.038-22.655,19.554-50.159,19.554-82.514c0-24.938-8.042-45.21-24.129-60.813c-16.085-15.609-38.496-23.417-67.239-23.417
		c-32.161,0-58.192,10.327-78.082,30.978c-19.891,20.654-29.836,45.352-29.836,74.091c0,17.132,4.854,31.505,14.56,43.112
		c3.235,3.806,4.283,7.898,3.14,12.279c-0.381,1.143-1.141,3.997-2.284,8.562c-1.138,4.565-1.903,7.522-2.281,8.851
		c-1.521,6.091-5.14,7.994-10.85,5.708c-14.654-6.085-25.791-16.652-33.402-31.689c-7.614-15.037-11.422-32.456-11.422-52.246
		c0-12.753,2.047-25.505,6.14-38.256c4.089-12.756,10.468-25.078,19.126-36.975c8.663-11.9,19.036-22.417,31.123-31.549
		c12.082-9.135,26.787-16.462,44.108-21.982s35.972-8.28,55.959-8.28c27.032,0,51.295,5.995,72.8,17.986
		c21.512,11.992,37.925,27.502,49.252,46.537c11.327,19.036,16.987,39.403,16.987,61.101c0,28.549-4.948,54.243-14.842,77.086
		c-9.896,22.839-23.887,40.778-41.973,53.813c-18.083,13.042-38.637,19.561-61.675,19.561c-11.607,0-22.456-2.714-32.548-8.135
		c-10.085-5.427-17.034-11.847-20.839-19.273c-8.566,33.685-13.706,53.77-15.42,60.24c-3.616,13.508-11.038,29.119-22.27,46.819
		c20.367,6.091,41.112,9.13,62.24,9.13c39.781,0,76.47-9.801,110.062-29.41c33.595-19.602,60.192-46.199,79.794-79.791
		c19.606-33.599,29.407-70.287,29.407-110.065C438.527,179.485,428.74,142.795,409.141,109.203z"/>
</g>
	</symbol>
	<symbol id="menu" viewBox="0 0 344.339 344.339">
	<g>
		<g>
			<g>
				<rect y="46.06" width="344.339" height="29.52"/>
			</g>
			<g>
				<rect y="156.506" width="344.339" height="29.52"/>
			</g>
			<g>
				<rect y="268.748" width="344.339" height="29.531"/>
			</g>
		</g>
	</g>
	</symbol>
</svg>